[CENTER]
[IMG]http://imageshack.us/a/img13/2981/deep1007ripperbanner.png[/IMG][/CENTER]

[CENTER][IMG]http://img20.imageshack.us/img20/1492/u3vr.jpg[/IMG][/CENTER]

[CENTER][IMG]http://imageshack.us/a/img809/3244/deep1007mediainfo.png[/IMG][/CENTER]
[CENTER][Code]
General
Complete name                            : Himmatwala [2013].mkv
Format                                   : Matroska
Format version                           : Version 2
File size                                : 685 MiB
Duration                                 : 2h 26mn
Overall bit rate                         : 654 Kbps
Writing application                      : Lavf53.6.0
Writing library                          : Lavf53.6.0

Video
ID                                       : 1
Format                                   : AVC
Format/Info                              : Advanced Video Codec
Codec ID                                 : V_MPEG4/ISO/AVC
Duration                                 : 2h 26mn
Bit rate                                 : 609 Kbps
Width                                    : 1 280 pixels
Height                                   : 544 pixels
Display aspect ratio                     : 2.35:1
Frame rate mode                          : Constant
Frame rate                               : 30.000 fps
Bits/(Pixel*Frame)                       : 0.029
Stream size                              : 638 MiB (93%)
Default                                  : Yes
Forced                                   : No

Audio
ID                                       : 2
Format                                   : AC-3
Format/Info                              : Audio Coding 3
Mode extension                           : CM (complete main)
Format settings, Endianness              : Big
Codec ID                                 : A_AC3
Duration                                 : 2h 26mn
Bit rate mode                            : Constant
Bit rate                                 : 32.0 Kbps
Channel(s)                               : 2 channels
Channel positions                        : Front: L R
Sampling rate                            : 32.0 KHz
Bit depth                                : 16 bits
Compression mode                         : Lossy
Stream size                              : 33.5 MiB (5%)
Default                                  : Yes
Forced                                   : No
[/CODE][/CENTER]

[CENTER][IMG]http://imageshack.us/a/img844/7039/deep1007screenshots.png[/IMG][/CENTER]
[CENTER]
[IMG]http://img823.imageshack.us/img823/210/6ns.png[/IMG]
[/CENTER]
SAMPLE =-[/b][/SIZE][/COLOR][/URL][/CENTER]

[CENTER][COLOR="Purple"][SIZE="3"][b]Don't Forget To Say "Thanks"! And "Comment"! If You Like My Post![/b][/SIZE][/COLOR]
[COLOR="Green"][SIZE="3"][b]If You Don't Reply, This Post Will "Die"![/b][/SIZE][/COLOR]
[COLOR="Brown"][SIZE="3"][b]Check Sample Before "Commenting"![/b][/SIZE][/COLOR][/CENTER]
[CENTER][IMG]http://img189.imageshack.us/img189/2664/xo7.png[/IMG][/CENTER]
[CENTER][COLOR="Red"][SIZE="3"][b]~ FAST SEEDING ~[/b][/SIZE][/COLOR][/CENTER]

[quote="deep1007"]Please Seed After downloading...and maintain your Ratio!
If Any Mistake, Forgive Me...All Suggestions, Instructions, Orders By Admin ETC, Heartly Accepted...
If You Want Any Other, Please PM Me...[/quote]